<?xml version="1.0" standalone="no"?><!DOCTYPE svg PUBLIC "-//W3C//DTD SVG 1.1//EN" "http://www.w3.org/Graphics/SVG/1.1/DTD/svg11.dtd"><svg t="1660117406095" class="icon" viewBox="0 0 1024 1024" version="1.1" xmlns="http://www.w3.org/2000/svg" p-id="4323" xmlns:xlink="http://www.w3.org/1999/xlink" width="32" height="32"><defs><style type="text/css">@font-face { font-family: feedback-iconfont; src: url("//at.alicdn.com/t/font_1031158_u69w8yhxdu.woff2?t=1630033759944") format("woff2"), url("//at.alicdn.com/t/font_1031158_u69w8yhxdu.woff?t=1630033759944") format("woff"), url("//at.alicdn.com/t/font_1031158_u69w8yhxdu.ttf?t=1630033759944") format("truetype"); }
</style></defs><path d="M249.344 497.664v29.696c0 14.848 11.776 26.624 26.624 26.624h692.224c14.848 0 26.624-11.776 26.624-26.624v-29.696c0-14.848-11.776-26.624-26.624-26.624H275.968c-14.848 0.512-26.624 12.288-26.624 26.624z" p-id="4324" fill="#ffffff"></path><path d="M146.944 530.944c-10.24-10.24-10.24-27.136 0-37.376l369.664-368.64c10.24-10.24 10.24-27.136 0-37.376l-21.504-21.504c-10.24-10.24-27.136-10.24-37.376 0L42.496 479.744c8.192-7.68 18.944-12.288 30.72-12.288-24.576 0-44.544 19.968-44.544 44.544s19.968 44.544 44.544 44.544c-12.288 0-23.04-4.608-31.232-12.8l414.208 414.208c10.24 10.24 27.136 10.24 37.376 0l21.504-21.504c10.24-10.24 10.24-27.136 0-37.376l-368.128-368.128z" p-id="4325" fill="#ffffff"></path></svg>