<?xml version="1.0" standalone="no"?><!DOCTYPE svg PUBLIC "-//W3C//DTD SVG 1.1//EN" "http://www.w3.org/Graphics/SVG/1.1/DTD/svg11.dtd"><svg t="1660189429780" class="icon" viewBox="0 0 1024 1024" version="1.1" xmlns="http://www.w3.org/2000/svg" p-id="1584" width="48" height="48" xmlns:xlink="http://www.w3.org/1999/xlink"><defs><style type="text/css">@font-face { font-family: feedback-iconfont; src: url("//at.alicdn.com/t/font_1031158_u69w8yhxdu.woff2?t=1630033759944") format("woff2"), url("//at.alicdn.com/t/font_1031158_u69w8yhxdu.woff?t=1630033759944") format("woff"), url("//at.alicdn.com/t/font_1031158_u69w8yhxdu.ttf?t=1630033759944") format("truetype"); }
</style></defs><path d="M488.1664 642.304L68.6592 364.3136c-17.4592-17.3568-17.4592-52.1216 0-69.4784L488.192 34.2784C496.896 25.6 505.6 25.6 514.3808 25.6c8.7296 0 17.4592 0 26.2144 8.704l419.4816 260.5568c17.4848 17.3568 17.4848 43.4176 0 60.8L540.5952 642.2784c-11.1872 7.3728-40.192 7.5008-52.4288 0z m14.08 375.04L42.496 713.2928c-17.4848-8.6784-22.9888-35.328-8.7552-54.6816 21.7856-24.32 45.3632-15.9232 50.56-12.3648l430.08 293.3504 432.7168-295.168c12.288-8.3456 35.6608-5.7088 47.9488 14.1824 6.912 11.1616 7.9872 33.536-8.704 46.0032L528.4608 1017.344c-8.7552 5.76-18.1248 5.8112-26.2144 0z m0-179.2L42.496 534.0928c-17.4848-8.6784-22.9888-35.328-8.7552-54.6816 21.7856-24.32 45.3632-15.9232 50.56-12.3648l430.08 293.3504 432.7168-295.168c12.288-8.3456 35.6608-5.7088 47.9488 14.1824 6.912 11.1616 7.9872 33.536-8.704 46.0032L528.4608 838.144c-8.7552 5.76-18.1248 5.8112-26.2144 0z" fill="#10385C" p-id="1585"></path></svg>